<?xml version="1.0" standalone="no"?>
<!DOCTYPE svg PUBLIC "-//W3C//DTD SVG 20010904//EN"
 "http://www.w3.org/TR/2001/REC-SVG-20010904/DTD/svg10.dtd">
<svg version="1.0" xmlns="http://www.w3.org/2000/svg"
 width="513.000000pt" height="486.000000pt" viewBox="0 0 513.000000 486.000000"
 preserveAspectRatio="xMidYMid meet">

<g transform="translate(0.000000,486.000000) scale(0.100000,-0.100000)"
fill="#000000" stroke="none">
<path d="M1465 3869 c-88 -21 -122 -34 -172 -66 -105 -65 -117 -82 -427 -588
l-89 -145 -51 -15 c-28 -8 -100 -21 -161 -30 -199 -29 -257 -48 -349 -115 -84
-63 -166 -193 -181 -290 -4 -25 -13 -55 -21 -67 -21 -34 -21 -698 1 -719 8 -9
15 -27 15 -40 0 -60 56 -141 129 -186 48 -30 141 -47 261 -48 l105 0 19 -58
c40 -123 87 -201 168 -276 92 -86 161 -123 290 -156 64 -17 228 -8 298 16 196
65 345 220 392 409 6 28 15 54 18 58 4 4 379 8 835 8 667 1 829 -1 835 -12 5
-7 11 -29 15 -48 3 -20 25 -73 48 -119 31 -63 57 -98 107 -145 135 -127 228
-168 400 -175 98 -4 112 -2 201 28 108 35 199 97 273 184 49 57 106 157 106
186 0 11 5 22 10 25 6 3 10 20 10 36 0 40 25 48 152 48 177 1 245 25 309 114
59 81 59 79 59 456 0 355 -3 389 -43 482 -41 95 -153 206 -248 248 -54 24
-359 83 -684 132 -71 11 -163 25 -203 32 -84 15 -70 2 -242 234 -61 81 -124
166 -141 188 -16 22 -62 83 -101 135 -105 140 -117 154 -188 203 -122 84 -91
81 -955 83 -455 1 -776 -2 -800 -7z m680 -489 l0 -315 -565 -2 c-330 -2 -571
1 -579 6 -22 14 -13 30 186 338 46 70 85 135 89 145 9 29 106 107 159 128 46
18 75 19 380 17 l330 -2 0 -315z m915 303 c25 -9 59 -26 76 -37 38 -25 127
-134 239 -290 17 -23 67 -91 113 -150 47 -60 82 -114 80 -124 -3 -16 -47 -17
-603 -20 -330 -1 -610 0 -622 3 l-23 5 0 309 c0 169 3 311 7 314 3 4 160 7
347 7 295 0 346 -2 386 -17z m-1836 -1619 c101 -26 194 -90 243 -168 43 -67
73 -168 73 -245 0 -161 -104 -318 -254 -382 -59 -25 -80 -29 -166 -29 -131 0
-203 28 -288 110 -94 93 -132 182 -132 311 0 104 17 156 82 245 49 69 124 122
211 150 86 27 148 29 231 8z m2851 2 c125 -33 222 -113 276 -228 32 -69 34
-79 34 -183 0 -103 -2 -114 -31 -175 -44 -91 -134 -178 -219 -213 -88 -36
-233 -39 -316 -5 -244 98 -343 391 -208 612 43 73 48 78 109 124 94 70 242 98
355 68z"/>
<path d="M1095 1934 c-119 -25 -128 -29 -170 -70 -49 -50 -69 -108 -70 -204 0
-88 20 -152 64 -201 102 -113 351 -102 431 19 16 25 30 53 30 61 0 9 3 26 6
39 6 21 4 22 -75 22 -72 0 -81 -2 -81 -19 0 -30 -37 -68 -73 -75 -45 -8 -95
11 -111 43 -37 72 -30 189 15 233 52 53 149 28 164 -42 7 -30 7 -30 80 -30 41
0 76 4 79 8 2 4 0 30 -6 56 -13 64 -75 127 -138 144 -57 14 -119 21 -145 16z"/>
<path d="M3860 1936 c-78 -29 -88 -36 -123 -76 -47 -55 -67 -117 -67 -205 0
-98 23 -159 80 -216 51 -51 87 -66 186 -76 149 -14 266 38 319 141 27 54 30
69 30 150 -1 150 -50 230 -170 275 -65 25 -199 28 -255 7z m199 -142 c38 -32
55 -90 48 -166 -9 -98 -67 -148 -156 -133 -67 11 -101 66 -101 161 0 106 46
164 131 164 36 0 55 -6 78 -26z"/>
<path d="M2880 1521 c-68 -24 -104 -64 -126 -137 -20 -70 -13 -149 19 -214 46
-94 190 -129 306 -75 42 20 56 23 63 13 4 -7 8 -16 8 -20 0 -5 16 -8 35 -8
l35 0 0 125 0 125 -120 0 -120 0 0 -45 0 -45 55 0 c30 0 55 -3 55 -7 -1 -43
-95 -68 -153 -42 -33 15 -47 49 -47 114 0 65 14 99 47 114 52 24 137 6 148
-31 5 -15 17 -18 72 -18 l66 0 -7 33 c-3 17 -14 43 -24 57 -49 69 -205 99
-312 61z"/>
<path d="M1850 1393 c-23 -65 -57 -160 -76 -210 l-33 -93 64 0 c61 0 65 1 80
30 15 29 17 30 89 30 l74 0 7 -30 c7 -30 7 -30 76 -30 38 0 69 4 69 10 0 10
-74 215 -129 360 l-17 45 -81 3 -80 3 -43 -118z m145 -60 c9 -32 18 -66 21
-75 5 -16 -2 -18 -46 -18 -46 0 -51 2 -45 18 3 9 13 43 22 75 9 31 20 57 24
57 4 0 15 -26 24 -57z"/>
<path d="M2270 1295 l0 -215 65 0 65 0 0 80 0 80 28 0 c25 0 32 -9 68 -77 l39
-78 73 -3 c39 -2 72 0 72 3 0 3 -21 45 -47 92 -35 66 -43 88 -32 92 8 2 26 18
42 34 58 63 24 173 -61 197 -20 5 -99 10 -174 10 l-138 0 0 -215z m261 104
c26 -41 -6 -69 -77 -69 l-54 0 0 38 c0 21 3 42 8 46 12 13 113 0 123 -15z"/>
</g>
</svg>
